<svg width="644" height="378" viewBox="0 0 644 378" fill="none" xmlns="http://www.w3.org/2000/svg">
<path d="M61.2 3.28543C53.464 7.28025 47.7359 14.2119 43.4667 23.9521C39.5 33.0019 39 41.5019 39.3333 50.6188C39.5906 57.654 41.5162 61.9527 39.3333 68.6456C38.0502 72.5798 36.194 74.2902 34.2667 77.9521C31.6 83.0188 25.4759 92.3592 20.6667 98.6188C0.275867 125.159 0 125.419 0 129.952C0 135.685 2.93333 138.619 8.66667 138.619C16.6667 138.619 30.2346 124.064 50.8 93.6854C56.5013 85.2637 62.4247 77.4549 64 76.3521C67.7586 73.7211 82.1333 73.5521 84.8 76.2188C87.4667 78.8854 86.2107 82.0023 75.2 98.8854C64.2105 115.736 49.2274 143.297 43.0667 157.819C32.4274 182.897 30.8173 202.476 38.1333 216.085C43.2174 225.543 50.1322 229.571 63.2 230.352C74.6656 231.038 84.6487 227.657 100 218.085C117.582 207.123 121.112 207.251 129.6 218.619C136.046 227.251 142.267 229.952 155.333 229.952C164.667 229.952 167.217 229.453 174.8 225.685C187.884 219.186 199.2 209.952 216.933 191.285C223.2 184.689 231.226 165.416 232.933 174.352C233.775 178.757 231.389 181.178 230.4 185.552C226.933 200.885 226.612 215.721 229.733 220.485C234.212 227.321 239.598 229.511 250.267 228.885C273.731 227.511 294.231 208.19 364 121.552C375.298 107.523 385.333 95.9521 386.267 95.9521C387.2 95.9521 388 97.0188 388 98.2188C388 99.5521 391.078 111.949 394.933 125.952C401.211 148.749 401.801 152.619 401.867 165.285C401.934 178.353 401.695 179.797 398.133 186.219C392.228 196.864 382.267 202.749 369.867 202.885C358 203.016 352 196.352 352 183.019C352 173.152 349.749 166.711 345.733 165.152C338.416 162.311 325.815 170.8 320.267 181.152C317.457 186.395 316.667 190.004 316.667 195.952C316.667 210.502 325.441 223.227 344 229.552C366.908 237.36 394.81 230.097 416.133 210.885C423.077 204.63 457.343 166.627 474.267 146.485C479.077 140.761 483.306 136.25 483.6 136.485C483.975 136.786 481.147 145.714 477.333 156.219C473.547 166.648 467.526 183.706 464 193.952C460.46 204.239 452 227.952 445.333 246.619C438.667 265.285 431.156 286.336 428.667 293.285C417.689 323.936 413.048 332.597 402.133 341.952C383.181 358.197 383 359.502 382.133 364.485C381.539 367.901 382.874 370.707 385.6 372.885C389.5 376.002 392.5 377.552 403.6 377.552C420.31 377.552 458.684 377.742 464.933 375.819C467.351 375.075 470.508 372.735 472 370.619C476.242 364.601 475.533 358.839 469.333 350.219C461.532 339.371 459.708 334.348 460.8 326.885C462.108 317.948 480.743 263.389 485.467 254.485C487.676 250.321 490.321 246.517 494.4 242.219C504.818 231.241 513.75 225.222 528.867 224.502C549.867 223.502 571.692 218.322 588.367 207.002C619.025 186.189 634.912 146.081 641.867 109.419C648.646 73.6814 638.096 46.3239 606.533 33.5521C577.867 21.9521 553.367 21.9521 530.4 38.3521C523.524 43.2621 520.867 48.0018 515.867 54.5018C489.092 89.3096 453 143.552 447.2 143.552C445.499 143.552 444.794 140.22 443.467 134.352C442.261 129.02 438.557 117.144 435.2 107.952C427.357 86.4768 423.682 72.4754 424.8 66.8854C425.282 64.4746 427.902 59.5801 430.667 56.0854C437.502 47.4465 440 42.2188 440 36.7521C440 27.0188 428.926 19.9098 416.8 21.9521C403.593 24.1765 397.656 29.9129 387.333 50.4854C378.455 68.1798 369.038 81.6619 341.467 115.952C300.104 167.395 282.002 185.679 275.067 183.019C272.269 181.946 273.017 171.174 276.667 157.285C282.617 134.641 303.304 75.6699 309.733 63.4188C313.17 56.8698 316.029 50.2185 316 48.7521C315.762 36.7515 293.067 25.2854 269.6 25.2854C237.067 25.2854 204.172 42.2551 174 74.6188C156.439 93.4552 148.902 104.87 134.133 134.619C121.035 161.003 111.048 175.258 100.133 182.885C87.5808 191.658 81.7916 189.012 83.0667 175.152C84.8583 155.678 101.751 120.497 128 81.2854C144.951 55.9638 147.143 49.9754 143.2 40.2188C139.276 30.5084 133.606 29.0508 113.333 32.6188C100.272 34.9175 90.2605 35.164 86.6667 33.2854C84.3938 32.0973 84.2252 30.7496 84.9333 19.4188C85.6918 7.28276 85.6 6.7521 82.2667 3.41876C77.7333 -1.11457 69.7307 -1.11975 61.2 3.28543ZM259.333 55.0188C270.667 57.0356 259.096 86.501 249.867 103.952C235.896 130.368 205.848 170.195 191.6 181.419C181.982 188.995 176.393 188.488 172.667 179.552C162.66 155.555 192.775 92.9854 226.667 67.9521C239.709 58.3187 248 53.0019 259.333 55.0188ZM570.4 60.4854C592.867 60.4854 601.867 80.5018 596.367 109.419C590.867 138.336 566.253 193.952 530.4 193.952C494.548 193.952 530.4 109.419 530.4 109.419C530.4 109.419 547.205 60.4854 570.4 60.4854Z" fill="white"/>
</svg>
